<mxfile host="app.diagrams.net" modified="2022-11-30T09:51:57.042Z" agent="5.0 (Macintosh; Intel Mac OS X 10_15_7) AppleWebKit/605.1.15 (KHTML, like Gecko) Version/15.6.1 Safari/605.1.15" version="20.6.0" etag="QRw2mYgkZ2Ptl1R7pcYX" type="github">
  <diagram id="AQRkKddxotfs-IVeO4ju" name="Page-1">
    <mxGraphModel dx="1073" dy="716" grid="1" gridSize="10" guides="1" tooltips="1" connect="1" arrows="1" fold="1" page="1" pageScale="1" pageWidth="827" pageHeight="1169" math="0" shadow="0">
      <root>
        <mxCell id="0" />
        <mxCell id="1" parent="0" />
        <mxCell id="p7I5OidBqHSbVJBE_N6H-3" style="edgeStyle=orthogonalEdgeStyle;rounded=0;orthogonalLoop=1;jettySize=auto;html=1;" edge="1" parent="1" source="p7I5OidBqHSbVJBE_N6H-1" target="p7I5OidBqHSbVJBE_N6H-2">
          <mxGeometry relative="1" as="geometry" />
        </mxCell>
        <mxCell id="p7I5OidBqHSbVJBE_N6H-1" value="launch screen" style="rounded=1;whiteSpace=wrap;html=1;" vertex="1" parent="1">
          <mxGeometry x="60" y="310" width="120" height="60" as="geometry" />
        </mxCell>
        <mxCell id="p7I5OidBqHSbVJBE_N6H-5" style="edgeStyle=orthogonalEdgeStyle;rounded=0;orthogonalLoop=1;jettySize=auto;html=1;" edge="1" parent="1" source="p7I5OidBqHSbVJBE_N6H-2" target="p7I5OidBqHSbVJBE_N6H-4">
          <mxGeometry relative="1" as="geometry" />
        </mxCell>
        <mxCell id="p7I5OidBqHSbVJBE_N6H-7" style="edgeStyle=orthogonalEdgeStyle;rounded=0;orthogonalLoop=1;jettySize=auto;html=1;" edge="1" parent="1" source="p7I5OidBqHSbVJBE_N6H-2" target="p7I5OidBqHSbVJBE_N6H-6">
          <mxGeometry relative="1" as="geometry" />
        </mxCell>
        <mxCell id="p7I5OidBqHSbVJBE_N6H-2" value="main interface" style="rounded=1;whiteSpace=wrap;html=1;" vertex="1" parent="1">
          <mxGeometry x="250" y="310" width="120" height="60" as="geometry" />
        </mxCell>
        <mxCell id="p7I5OidBqHSbVJBE_N6H-4" value="tutors" style="rounded=1;whiteSpace=wrap;html=1;" vertex="1" parent="1">
          <mxGeometry x="250" y="220" width="120" height="60" as="geometry" />
        </mxCell>
        <mxCell id="p7I5OidBqHSbVJBE_N6H-6" value="students" style="rounded=1;whiteSpace=wrap;html=1;" vertex="1" parent="1">
          <mxGeometry x="250" y="390" width="120" height="60" as="geometry" />
        </mxCell>
      </root>
    </mxGraphModel>
  </diagram>
</mxfile>
